<svg xmlns="http://www.w3.org/2000/svg" width="1200" height="750" viewBox="0 0 1200 750">
  <defs>
    <linearGradient id="bg" x1="0" y1="0" x2="1" y2="1">
      <stop offset="0" stop-color="#071a36"/>
      <stop offset="1" stop-color="#061225"/>
    </linearGradient>
    <radialGradient id="gold" cx="30%" cy="22%" r="60%">
      <stop offset="0" stop-color="rgba(212,175,55,0.35)"/>
      <stop offset="1" stop-color="rgba(212,175,55,0)"/>
    </radialGradient>
  </defs>
  <rect width="1200" height="750" fill="url(#bg)"/>
  <rect width="1200" height="750" fill="url(#gold)"/>
  <g transform="translate(120,240)">
    <path d="M140 210c20-70 65-110 140-125 80-16 240-16 320 0 75 15 120 55 140 125" fill="rgba(255,255,255,0.06)" stroke="rgba(255,255,255,0.14)" stroke-width="2"/>
    <path d="M95 250h870c30 0 55 25 55 55v70c0 30-25 55-55 55H95c-30 0-55-25-55-55v-70c0-30 25-55 55-55z" fill="rgba(255,255,255,0.04)" stroke="rgba(255,255,255,0.12)" stroke-width="2"/>
    <circle cx="240" cy="420" r="54" fill="rgba(0,0,0,0.35)" stroke="#d4af37" stroke-width="4"/>
    <circle cx="840" cy="420" r="54" fill="rgba(0,0,0,0.35)" stroke="#d4af37" stroke-width="4"/>
    <path d="M250 250h580" stroke="rgba(212,175,55,0.38)" stroke-width="10"/>
  </g>
  <text x="90" y="120" font-family="system-ui, -apple-system, Segoe UI, Roboto, Arial" font-size="34" fill="#eaf0ff" font-weight="800">Toyota Corolla 2020</text>
  <text x="90" y="160" font-family="system-ui, -apple-system, Segoe UI, Roboto, Arial" font-size="18" fill="rgba(234,240,255,0.70)">Sample prize artwork (replace with real photo)</text>
</svg>
